<?xml version="1.0" encoding="UTF-8"?>
<svg id="Capa_2" data-name="Capa 2" xmlns="http://www.w3.org/2000/svg" viewBox="0 0 934.85 771.9">
  <defs>
    <style>
      .cls-1 {
        fill: #ff7b00;
      }

      .cls-2 {
        fill: #ffe900;
      }

      .cls-3 {
        fill: #002a55;
      }
    </style>
  </defs>
  <g id="Capa_1-2" data-name="Capa 1">
    <g>
      <path class="cls-2" d="M716.26,646.94c1.31-1.15,2.6-2.35,3.9-3.52,2.22-2,4.44-3.98,6.55-6.1,2.56-2.57,5.11-5.14,7.66-7.72,1.97-1.98,3.74-4.19,5.58-6.28,1.6-1.81,3.15-3.61,4.65-5.52,1.35-1.72,2.7-3.44,4.05-5.17.89-1.14,1.84-2.26,2.67-3.44,1.89-2.71,3.78-5.42,5.67-8.13,1.4-2.01,2.67-4.07,3.96-6.16,1.64-2.66,3.37-5.29,4.87-8.03,1.74-3.21,3.48-6.42,5.22-9.63,1.26-2.32,2.31-4.75,3.44-7.12,1.07-2.26,2.16-4.5,3.11-6.81,1.28-3.12,2.57-6.24,3.85-9.36,1.39-3.39,2.51-6.91,3.72-10.37.85-2.41,1.58-4.83,2.32-7.28.89-2.94,1.8-5.86,2.57-8.83.87-3.37,1.74-6.74,2.61-10.11.79-3.07,1.35-6.22,2.03-9.32,1.13-5.2,2.01-10.46,2.77-15.73.88-6.12,1.79-12.26,2.29-18.42.48-5.9,1.04-11.81,1.18-17.73.15-6.17.32-12.36.09-18.54-.23-6.16-.65-12.27-1.27-18.4-1.24-12.1-3.9-24.07-7.6-35.65-3.63-11.37-8.59-22.28-14.38-32.71-5.86-10.55-12.62-20.62-20.12-30.07-7.47-9.41-16.08-17.93-25.8-25.03-4.58-3.34-9.33-6.42-14.15-9.41-4.85-3-9.76-5.9-14.77-8.61-4.71-2.55-9.52-4.81-14.53-6.72-4.76-1.82-9.65-3.43-14.54-4.85-2.37-.69-4.77-1.33-7.18-1.9-9.2-2.87-18.51-5.43-27.79-8.01-11.44-3.18-22.9-6.3-34.26-9.76-11.19-3.4-22.38-6.83-33.36-10.86-5.96-2.19-11.9-4.38-17.81-6.67-5.1-1.97-10.16-4.02-15.22-6.06-3.46-1.43-6.9-2.87-10.36-4.29-11.42-4.71-22.8-9.49-34.65-13.04-7.64-2.29-15.39-4.18-23.31-5.22-8.6-1.13-17.31-1.45-25.97-.88-5.23.34-10.39,1.01-15.55,1.86-2.65.44-5.3.83-7.91,1.44-3.48.82-7.05,1.48-10.49,2.5-3.3.98-6.61,1.95-9.91,2.92-2.66.79-5.27,1.79-7.89,2.71-2.71.95-5.36,1.96-8.01,3.04-2.73,1.11-5.54,2.11-8.21,3.36-3.23,1.51-6.45,3.02-9.68,4.54-2.41,1.13-4.74,2.47-7.09,3.72-2.51,1.33-5,2.67-7.43,4.13-1.89,1.14-3.77,2.27-5.66,3.41-.99.6-2.03,1.15-2.99,1.8-2.78,1.9-5.57,3.8-8.34,5.7-2.28,1.56-4.44,3.24-6.62,4.93-1.7,1.31-3.39,2.63-5.09,3.94-.59.45-1.2.89-1.76,1.38-2.76,2.44-5.52,4.88-8.28,7.32-1.86,1.65-3.58,3.44-5.34,5.2-2.2,2.2-4.52,4.32-6.6,6.64-2.49,2.77-4.97,5.54-7.46,8.31-1.65,1.84-3.16,3.78-4.72,5.69-1.95,2.41-3.97,4.77-5.8,7.26-2.18,2.97-4.36,5.95-6.54,8.92-1.41,1.93-2.72,3.92-4.05,5.9-1.54,2.3-3.18,4.57-4.63,6.94-1.93,3.16-3.85,6.32-5.77,9.48-1.43,2.35-2.73,4.78-4.06,7.19-1.34,2.43-2.77,4.83-4,7.31-1.66,3.34-3.32,6.69-4.98,10.03-1.15,2.31-2.13,4.69-3.17,7.04-1.18,2.68-2.42,5.34-3.47,8.08-1.33,3.49-2.66,6.99-3.98,10.48-.94,2.47-1.65,5.03-2.45,7.54-.87,2.73-1.75,5.43-2.46,8.21-.92,3.59-1.83,7.18-2.75,10.77-.66,2.57-1.06,5.22-1.57,7.82-.47,2.39-.98,4.77-1.32,7.18-.49,3.64-.99,7.27-1.49,10.91-.41,3.03-.55,6.1-.78,9.15-.18,2.44-.41,4.87-.45,7.32-.06,3.7-.12,7.4-.18,11.1-.05,3.1.14,6.2.25,9.29.09,2.45.15,4.88.36,7.33.3,3.55.61,7.1.91,10.65.28,3.33.88,6.66,1.32,9.98.32,2.41.66,4.79,1.09,7.18.56,3.16.99,6.38,1.68,9.51.76,3.42,1.52,6.84,2.28,10.26.6,2.71,1.34,5.37,2.06,8.05.73,2.71,1.37,5.45,2.21,8.13,1.08,3.48,2.17,6.96,3.26,10.45.75,2.42,1.66,4.79,2.5,7.18.85,2.38,1.65,4.78,2.59,7.13,1.38,3.45,2.77,6.9,4.15,10.35,1.1,2.74,2.33,5.41,3.52,8.11,1.01,2.28,1.97,4.58,3.07,6.81,1.67,3.39,3.33,6.78,5,10.17,1.17,2.38,2.52,4.68,3.78,7.01,1.38,2.53,2.71,5.08,4.19,7.56,1.95,3.28,3.91,6.55,5.86,9.84,1.33,2.23,2.81,4.39,4.24,6.57,1.38,2.12,2.71,4.26,4.18,6.32,2.18,3.06,4.36,6.12,6.55,9.17,1.76,2.46,3.7,4.8,5.57,7.18,1.55,1.98,3.07,3.98,4.72,5.88,2.36,2.72,4.72,5.43,7.09,8.15.66.76,1.41,1.46,2.12,2.19,1.43,1.48,2.87,2.95,4.3,4.43,1.95,2.01,3.93,3.96,5.99,5.86,2.18,2.02,4.29,4.18,6.58,6.07,2.74,2.26,5.48,4.53,8.22,6.79,2.3,1.9,4.79,3.6,7.2,5.35,2.04,1.49,4.06,2.99,6.19,4.35,2.82,1.8,5.65,3.59,8.48,5.39,1.38.88,2.88,1.61,4.31,2.4,1.8,1,3.6,1.99,5.4,2.99,2.17,1.2,4.36,2.26,6.6,3.32,2.44,1.17,4.86,2.45,7.37,3.48,3.41,1.4,6.83,2.8,10.24,4.21,2.77,1.14,5.62,2.08,8.45,3.06,2.35.82,4.68,1.68,7.06,2.38,3.54,1.04,7.08,2.08,10.62,3.12,3.07.9,6.24,1.54,9.35,2.29,2.34.56,4.66,1.14,7.02,1.6,3.66.7,7.32,1.41,10.98,2.11,2.64.51,5.34.8,8,1.18,2.76.4,5.53.87,8.3,1.15,3.83.38,7.66.75,11.49,1.13,2.39.24,4.79.31,7.18.44,2.85.15,5.73.42,8.59.42,3.69,0,7.38.01,11.07.02,6.05.01,12.08-.4,18.12-.71,1.05-.05,2.11-.22,3.16-.34,2.05-.22,4.11-.44,6.16-.65,2.62-.28,5.22-.54,7.82-.97,3.72-.61,7.44-1.21,11.16-1.81,2.55-.41,5.07-1.07,7.59-1.62,2.83-.62,5.67-1.18,8.46-1.94,3.69-1,7.39-2,11.08-3,2.35-.64,4.64-1.41,6.95-2.16,2.62-.84,5.29-1.6,7.87-2.54,3.49-1.28,6.98-2.56,10.47-3.84,2.5-.92,4.95-1.95,7.4-2.96,2.74-1.13,5.54-2.17,8.24-3.39,3.21-1.45,6.41-2.9,9.61-4.35,2.07-.94,4.11-1.93,6.15-2.93,2.77-1.36,5.6-2.65,8.32-4.1,5.16-2.74,10.35-5.44,15.43-8.34,3.03-1.73,6.13-3.37,9.1-5.2,2.95-1.81,5.89-3.61,8.84-5.42,2-1.23,3.96-2.5,5.92-3.79,2.52-1.65,5.09-3.24,7.56-4.98,4.85-3.41,9.71-6.78,14.43-10.37,2.59-1.96,5.27-3.85,7.78-5.92,2.78-2.3,5.57-4.59,8.35-6.89.59-.49,1.18-.99,1.76-1.5Z"/>
      <g>
        <path class="cls-1" d="M282.48,177.76c3.42.45,7.09-.66,9.55-3.1,2.1-2.09,3.29-4.97,3.28-7.93,0-3.01-1.26-5.57-3.22-7.77-10.13-11.35-20.29-22.67-30.32-34.11-.47-.54-.94-1.08-1.41-1.62-6.94-7.97-13.83-15.97-20.58-24.1-3.57-4.3-7.07-8.7-10.85-12.82-1.06-1.16-2.15-2.24-3.34-3.27-2.51-2.16-6-3.26-9.29-2.81-6.75.93-11.17,7.92-9.21,14.41.93,3.07,3.04,5.53,5.71,6.91.29.31.57.63.85.95,6.66,7.76,13.1,15.71,19.77,23.46,14.09,16.4,28.5,32.51,42.9,48.63,1.63,1.83,3.83,2.85,6.15,3.16Z"/>
        <path class="cls-1" d="M343.5,126.3c1.87.25,3.82.02,5.66-.75,5.57-2.35,8.29-8.96,5.94-14.54-3.12-7.41-6.36-14.77-9.65-22.1-4.22-9.36-8.66-18.61-12.82-28-2.2-4.98-4.27-10-6.34-15.03-.93-2.25-1.85-4.49-2.81-6.72-.77-1.79-1.61-3.56-2.37-5.36-1.21-4.1-4.75-7.38-9.2-7.97-4.24-.56-8.99,1.52-11.05,5.39-1.74,3.26-1.99,6.82-.61,10.26.88,2.18,1.91,4.31,2.83,6.47,2.12,4.98,4.14,9.99,6.24,14.98,3.98,9.5,8.44,18.79,12.74,28.15,4.34,9.45,8.55,18.95,12.58,28.53,1.58,3.74,5.06,6.19,8.87,6.69Z"/>
        <path class="cls-1" d="M413.89,85.57c1.92.25,3.91.03,5.72-.73,2.65-1.12,4.81-3.26,5.93-5.91,1.19-2.82,1.07-5.81.01-8.63-.9-2.4-1.77-4.82-2.62-7.24-2.42-7.05-4.7-14.15-6.85-21.3-1.09-3.61-2.14-7.24-3.21-10.86-.55-1.85-1.1-3.71-1.68-5.55-.27-.84-.56-1.67-.82-2.52-.41-5.09-4.38-9.48-9.61-10.18-6-.79-11.67,3.55-12.46,9.55-.56,4.24,1.27,8.24,2.46,12.22,1.48,4.92,2.9,9.86,4.38,14.78,3.01,9.99,6.29,19.92,9.95,29.69,1.41,3.77,4.99,6.16,8.82,6.67Z"/>
        <path class="cls-1" d="M213.68,254.73c.91.12,1.85.12,2.82-.01,2.85-.39,5.48-1.92,7.25-4.19,1.82-2.34,2.63-5.39,2.23-8.33-.38-2.72-1.88-5.67-4.19-7.25-7.51-5.13-14.82-10.56-22.42-15.55-7.05-4.64-14.26-9.05-21.28-13.74-15.95-10.89-31.62-22.19-47.59-33.05.06.04.12.08.18.12-1.98-1.35-3.98-2.67-5.86-4.16-1.73-2.52-4.46-4.33-7.67-4.76-6-.79-11.67,3.56-12.46,9.55-.51,3.84,1.03,7.43,3.62,10.19,1.35,1.43,2.95,2.69,4.56,3.83,3.5,2.48,7.07,4.86,10.62,7.26,4.64,3.17,9.26,6.39,13.85,9.63,8.85,6.23,17.68,12.5,26.63,18.59,4.76,3.24,9.56,6.42,14.42,9.5,3.9,2.47,7.81,4.91,11.66,7.47,6.06,4.2,12.03,8.51,18.12,12.66,1.72,1.17,3.54,1.98,5.51,2.24Z"/>
        <path class="cls-1" d="M161.33,342.31c1.9.25,3.82.05,5.68-.73,2.65-1.11,4.81-3.26,5.93-5.91,2.27-5.37-.22-12.46-5.9-14.56-7.62-2.81-15.48-4.79-23.35-6.76-7.34-1.84-14.71-3.58-22.07-5.35-10.53-2.53-20.99-5.37-31.57-7.67-5.44-1.18-10.92-2.12-16.44-2.82-4.25-.54-8.53-.83-12.77-1.39-6-.79-11.67,3.55-12.47,9.55-.79,6,3.55,11.67,9.55,12.46,3.7.49,7.43.77,11.13,1.19,4.36.5,8.68,1.19,12.99,1.99,4.82,1,9.6,2.15,14.37,3.35,10.47,2.63,20.96,5.14,31.46,7.67,9.74,2.35,19.57,4.57,29.09,7.72.47.17.93.33,1.4.51.97.36,1.96.61,2.95.74Z"/>
        <path class="cls-1" d="M13.43,461.39c1.72.23,3.52.17,5.28-.09,3.85-.57,7.68-1.56,11.49-2.39,12.81-2.42,25.8-3.68,38.73-5.33,10.41-1.33,20.81-2.61,31.25-3.7,4.88-.51,9.77-1.01,14.64-1.6,5.12-.62,10.24-1.33,15.38-1.76,2.8-.23,5.56-2.01,7.25-4.19,1.83-2.34,2.64-5.39,2.23-8.34-.39-2.85-1.92-5.48-4.19-7.25-2.44-1.9-5.32-2.48-8.34-2.23-7.66.63-15.27,1.81-22.91,2.62-7.82.83-15.64,1.59-23.45,2.55-10.49,1.29-20.96,2.68-31.46,3.95-5.63.68-11.24,1.4-16.83,2.32-5.19.85-10.31,2-15.45,3.09-.37.07-.73.14-1.1.2-2.38-.33-4.89.1-7.14,1.32-5.84,3.18-7.29,11.28-3.31,16.47,2.04,2.66,4.86,3.96,7.91,4.36Z"/>
        <path class="cls-1" d="M9.65,575.6s0,0,0,0c.5.07,1.01.1,1.5.09h0s.09,0,.14,0c.53-.01,1.05-.06,1.56-.15,3.05-.38,6.07-1.29,9.02-2.12,3.59-1.01,7.14-2.19,10.64-3.46,6.67-2.43,13.31-4.92,20-7.27,7.1-2.39,14.25-4.59,21.46-6.57,9.91-2.72,19.89-5.16,29.78-7.95,9.75-2.75,19.35-5.98,29.13-8.65,5.83-1.6,9.37-7.83,7.77-13.65-1.61-5.83-7.82-9.37-13.65-7.76-7.02,1.92-13.95,4.07-20.9,6.22-6.79,2.1-13.64,3.96-20.51,5.77-10.13,2.67-20.32,5.18-30.31,8.35-10.5,3.34-20.8,7.19-31.15,10.97-4.64,1.59-9.33,3.07-14.12,4.13-.14.02-.28.04-.43.05.09,0,.19-.01.28-.02-.07.01-.14.03-.21.04.08-.02.15-.03.23-.05.18-.01.35-.03.53-.04-2.7.25-5.17,1.22-7.14,3.18C1.18,558.79-.01,561.68,0,564.64c.02,5.48,4.22,10.24,9.65,10.95,0,0,0,0,0,0Z"/>
        <path class="cls-1" d="M480.6,64.61c-1.22-9.53-2.14-19.1-2.95-28.67-.44-5.17-.79-10.36-1.05-15.55-.12-2.28-.25-4.57-.17-6.86.07-1.83.28-3.48.64-5.27.74-3.66,4.24-7.15,7.84-7.94,3.78-.82,8.1-.14,10.82,2.89,1.28,1.42,2.36,2.99,2.84,4.89.42,1.68.45,3.38.13,5-.03.2-.05.39-.08.59-.07,2.2.06,4.4.17,6.59.13,2.58.3,5.15.48,7.73.82,11.2,1.9,22.41,3.32,33.55.77,6-3.44,11.69-9.48,12.52-.97.13-1.94.13-2.88,0-4.83-.64-9-4.47-9.64-9.49ZM496.57,17.89s.04-.03.06-.04c.26-.38.52-.76.78-1.14.04-.09.08-.18.11-.27-.28.51-.59.99-.95,1.45Z"/>
        <path class="cls-1" d="M561.81,67.28c6.1.81,11.54-3.57,12.47-9.55,1.71-11,3.82-21.94,5.99-32.86-.06.28-.11.56-.17.84.09-.46.18-.93.28-1.4.38-.89.65-1.85.78-2.85.79-6-3.55-11.67-9.55-12.47-4.99-.66-9.86,2.22-11.82,6.84-.79,1.88-1.1,3.91-1.5,5.9-.71,3.59-1.41,7.18-2.09,10.78-1.41,7.41-2.78,14.84-3.94,22.3-.93,5.98,3.66,11.69,9.55,12.47Z"/>
        <path class="cls-1" d="M628.84,74.43c4.82.64,10-1.91,11.81-6.64,1.63-4.26,3.34-8.5,4.97-12.76.83-2.19,1.65-4.39,2.4-6.62.38-1.12.68-2.24.84-3.41.79-6-3.56-11.67-9.55-12.47-5.82-.77-11.33,3.29-12.38,9.01-.05.18-.11.35-.16.53-2.04,5.74-4.39,11.37-6.56,17.06-1.08,2.81-1.2,5.82-.01,8.63,1.11,2.65,3.26,4.81,5.91,5.93.89.37,1.81.62,2.75.74Z"/>
        <path class="cls-1" d="M678.18,112.03c2.89.38,5.94-.37,8.24-2.19.78-.62,1.45-1.3,2.02-2.06.02-.02.04-.04.06-.06,0,0,.01-.02.02-.03,0,0-.01.02-.02.03,1.69-1.85,3.43-3.67,5.11-5.53,2.31-2.56,4.58-5.16,6.87-7.74.43-.48.87-.95,1.28-1.44.38-.43.77-.86,1.15-1.29,2.01-2.26,3.29-4.84,3.28-7.93-.01-2.9-1.18-5.72-3.22-7.77-2.08-2.1-4.97-3.3-7.93-3.28-2.76.01-5.9,1.12-7.77,3.23-.6.67-1.19,1.34-1.79,2.02-.33.33-.65.68-.94,1.06,0,0,0,0,0,.01-1.31,1.48-2.62,2.96-3.93,4.44-2.03,2.28-4.06,4.55-6.13,6.79-.8.88-1.65,1.72-2.44,2.6-1.38,1.54-2.54,3.17-3.07,5.21-.61,2.34-.57,5.03.47,7.25,1.45,3.1,3.94,5.49,7.3,6.41.48.13.97.23,1.46.29Z"/>
      </g>
      <g>
        <path class="cls-3" d="M642.74,725.72c-6.59-1.79-12.07-5.89-15.44-11.54-5.83-9.75-8.79-24.24-7.54-36.92,1.61-16.34,4.98-32.81,8.24-48.75,1.74-8.52,3.48-17.04,4.98-25.59,1.12-6.41,1.88-13.01,2.62-19.38,1.25-10.8,2.55-21.97,5.59-32.37,13.42-45.67,28.72-94.2,46.8-148.35,4.72-14.15,11.87-27.29,32.2-27.64,2.9-.05,5.61.26,8.06.93,8.57,2.33,13.53,8.98,17.89,14.84,17.67,23.71,21.49,52.27,23.89,79.49.98,11.12,3.31,22.27,5.57,33.06,1.03,4.92,2.06,9.84,2.97,14.76l.34,1.82,1.62-.89c22.9-12.69,36.95-28.92,45.56-52.63,4.12-11.37,10.6-22.19,16.88-32.64,1.88-3.13,3.75-6.25,5.57-9.39,10.68-18.49,27.59-24.85,53.22-19.99.66.12,1.31.28,1.96.46,16.12,4.38,32.82,26.1,31,50.28-2.27,30.17-6.96,60.67-11.5,90.17l-1.62,10.82c-2.81,19.01-5.71,38.66-11.71,56.89-4.86,14.79-8.92,30.13-12.84,44.95-8.71,32.95-17.73,67.03-36.1,97.09-8.14,13.33-23.69,19.54-38.69,15.46h0c-7.49-2.04-13.95-6.44-18.68-12.75-7.96-10.59-4.18-21.47-.53-31.99l.5-1.46c15.72-45.61,23.95-83.26,26.68-122.06l.23-3.16-10.48,8.85c-4.78,4.02-9.01,7.57-13.16,11.2-9.12,7.95-18.4,10.94-26.88,8.63-6.94-1.89-13.22-7.39-18.12-15.92-5.93-10.3-11.65-20.73-17.37-31.15l-4.62-8.42c-3.64-6.63-6.42-9.79-9.32-10.58-4.65-1.26-8.53,3.83-12.02,9.53-2.4,3.91-3.67,8.49-4.9,12.92-.45,1.63-.9,3.26-1.41,4.85-3.83,12.09-7.51,24.23-11.19,36.37-8.45,27.87-17.19,56.67-27.64,84.29-5.7,15.09-19.85,18.83-30.59,15.91ZM729.23,402.35c-11.7-2.96-22.86,4.13-27.13,17.25-2.7,8.28-5.48,16.54-8.26,24.81-7.44,22.06-15.13,44.88-20.99,67.77-10.21,39.93-20.03,84.04-30,134.85l-.43,2.14c-3.71,18.72-7.55,38.07,2.4,59.06l.74,1.57,1.32-1.11c1.39-1.17,2.87-2.18,4.27-3.16,3.03-2.08,5.88-4.05,7-6.9,8.63-21.8,17.56-44.36,24.76-67.45,2.56-8.23,4.22-16.86,5.83-25.2,1.64-8.54,3.34-17.37,6-25.69,3.34-10.41,9.23-20.97,16.59-29.75,4.68-5.58,13.17-7.71,21.64-5.41,5.68,1.54,10.47,4.96,13.13,9.36,6.79,11.28,11.87,21.43,15.51,31.05,4.88,12.79,11.09,20.28,18.47,22.29,7.79,2.11,16.7-1.89,26.46-11.91,6.15-6.31,14.3-13.8,22.87-15.72,2.75-.61,5.32-.6,7.63.02,9.39,2.55,13.48,14.67,10.18,30.17-4.78,22.38-10.2,45.03-15.44,66.92-3.18,13.28-6.35,26.54-9.42,39.84-2.25,9.76-3.82,17.98-4.16,26.34-.18,4.13,3.26,10.07,6.83,11.76.35.16.72.3,1.12.4,3.45.94,9.64-.16,12.16-2.93l1.41-1.54c6.28-6.9,12.77-14.03,15.75-22.44,13.85-39.19,25.35-74.43,35.14-107.72,5.74-19.52,10.11-39.77,14.32-59.34,1.1-5.07,2.18-10.13,3.3-15.19.67-3.03,1.37-6.08,2.07-9.12,2.91-12.63,5.92-25.7,6.76-38.72,1.24-19.39,1.92-40.06-1.56-59.88-1.93-11.03-7.72-18.38-16.28-20.71-7.36-2-16.18.01-24.84,5.66-7.18,4.67-12.17,9.62-14.82,14.71-5.2,9.99-10.04,20.36-14.72,30.4-4.65,9.97-9.46,20.28-14.61,30.18-5.89,11.29-13.22,25.35-22.97,36.1-7.3,8.04-17.37,11.28-26.96,8.68-8.51-2.31-15-8.84-17.83-17.91-5.23-16.76-8.28-34.54-11.24-51.74l-.84-4.93c-1.07-6.24-1.68-12.72-2.26-18.98-.79-8.63-1.62-17.56-3.7-26.09-1.87-7.64-7.95-19.83-15.07-21.76h-.01s-.11-.03-.11-.03Z"/>
        <path class="cls-3" d="M233.61,628.7c-8.35-2.27-16.73-5.69-24.88-10.17-33.3-18.28-46.84-42.01-42.61-74.66,1.41-10.89,2.61-21.8,3.82-32.72l1.55-13.9,1.63.19.58-1.14c1.39-6.42,2.56-12.92,3.75-19.41,2.55-13.98,5.18-28.44,9.93-41.84,15.33-43.09,32.05-85.72,49.71-126.7,12.25-28.46,40.64-39.21,66.28-47.06,3.43-1.05,8.05-.85,13.37.6,4.68,1.27,9.73,3.45,14.24,6.13,27.48,16.39,52.59,36.93,50.33,75.85-1.51,25.58-8.9,43-23.97,56.47-7.75,6.93-16,9.66-23.23,7.7-5.18-1.41-9.61-5.1-13.14-10.96-1.09-1.81-2.25-3.61-3.42-5.42-6.87-10.65-13.36-20.71-7.53-34.9,1.5-3.63-.84-8.48-3.09-13.17-.97-2.01-1.95-4.02-2.6-5.9l-.59-1.71-1.45,1.07c-1.59,1.16-3.38,2.22-5.15,3.28-4.11,2.44-8.36,4.96-10.4,8.82-5.28,10.04-9.41,21.23-12.25,33.29-8.82,37.44-17.21,75.44-24.93,112.94-2.18,10.55-2.67,21.58-3.15,32.24l-.14,2.9c-.49,10.72,3.39,17.99,10.64,19.96,4.79,1.3,10.69.11,17.06-3.44,3.88-2.16,7.56-4.75,11.14-7.25,4.24-2.98,8.64-6.06,13.27-8.35,6.92-3.43,13.83-4.24,20.56-2.41,4.98,1.35,9.88,4.16,14.58,8.34,10.53,9.4,7.75,21.28,4,32.64-15.74,47.72-57.51,71.31-103.92,58.71h0ZM321.3,277.66c-5.65-1.54-11.59-1.52-17.66.05-24.38,6.32-39.78,16.61-48.47,32.38-9.94,18.05-18.56,37.39-25.86,54.1-20.99,48.03-35.52,103.07-44.42,168.27-2.48,18.23-.08,37.07,6.4,50.4,7.27,14.93,21.25,25.87,39.38,30.79,14.52,3.94,30.53,3.84,46.31-.3,27.32-7.19,44.43-33.96,45.76-71.61l.08-2.22-2,.98c-3.56,1.74-6.81,3.23-9.85,4.62-5.93,2.71-11.06,5.06-15.74,8.07-13,8.37-27.11,15.56-42.13,11.48-2.87-.78-5.73-1.97-8.54-3.52-15.52-8.63-15.54-25.34-13.82-38.93,3.97-31.1,8.26-56.59,13.53-80.19,6.93-31.17,15.32-62.98,24.95-94.56,3.47-11.34,7.39-24.15,22.1-26.31,4.83-.71,9.43-.49,13.68.67,13.85,3.76,22.2,16.93,21.8,34.36-.33,13.3,3.8,22.79,12.97,29.83l.82.63.81-.63c10.75-8.38,18.08-22.79,20.11-39.55,2.1-17.44-1.96-34.58-10.88-45.85-7.02-8.9-16.71-19.55-29.34-22.98Z"/>
        <path class="cls-3" d="M439.82,663.12c-35.52-9.65-50.63-33.38-44.88-70.54,2.25-14.64,5.06-29.47,7.76-43.81,3.52-18.63,7.16-37.89,9.65-57,5.19-39.72,17.51-77.52,30.06-112.46,9.61-26.78,28.74-46.14,47.97-63.08,7.88-6.93,21.93-8.74,36.69-4.74,9.33,2.53,17.39,7,22.71,12.58,3.76,3.93,8.38,7.05,12.84,10.06,3.88,2.61,7.88,5.32,11.22,8.5,7.29,6.92,14.33,15.11,21.55,25.04,10.36,14.23,13.17,30.63,8.87,51.63-2.55,12.33-3.34,25.18-4.11,37.61-.48,7.72-.97,15.71-1.89,23.47-1.3,11.05-3.27,22.22-5.18,33.03-.79,4.42-1.56,8.84-2.3,13.26l-2.3-.45-.32,1.19c-1.88,6.93-3.62,13.91-5.36,20.88-3.74,15-7.61,30.51-12.88,45.19-17.53,48.8-74,81.42-123.3,71.23-2.33-.49-4.6-1.03-6.8-1.63h0ZM524.04,323.54c-9.39-2.55-17.49,1.7-23.5,5.68-37.61,24.98-49.65,65.57-61.28,104.82l-1.53,5.13c-8.27,27.79-11.94,57.39-15.49,86.03-.75,6.06-1.49,12.11-2.28,18.13-3.48,26.62-5.24,52.63-5.22,77.31.02,7.85,7.32,19.28,14.74,23.08,4.73,2.41,10.06,4.43,15.86,6.01,6.97,1.89,14.56,3.14,22.54,3.71,41.68,2.96,64.57-24.82,83.09-55.28,6.94-11.41,10.88-24.79,14.69-37.73,1.71-5.79,3.48-11.77,5.47-17.47,11.89-41.09,14.99-83.8,17.98-125.11l.76-10.47c1.05-14.51-2.08-27.11-9.85-39.63-7.24-11.66-18-19.04-28.41-26.19-4.88-3.35-9.93-6.81-14.5-10.65-4.53-3.81-8.82-6.22-13.08-7.38Z"/>
        <path class="cls-3" d="M47.14,559.08c-7.95-2.28-16.11-9.92-21.28-19.94-4.96-9.59-6.3-19.39-3.68-26.84,6.57-18.7,24.6-44.28,47.36-38.1,1.43.39,2.88.9,4.34,1.56,23.67,6.45,30.48,22.88,23.9,56.86-1.68,8.72-7.2,16.4-15.56,21.61-10.07,6.28-22.96,8.16-34.49,5.03l-.6-.17ZM66.04,495.36c-.98-.26-1.99-.49-3.04-.66-5.28-.86-9.69-.04-13.11,2.45-3.77,2.73-6.19,7.34-7.18,13.69-3.37,16.93,2.19,30,14.19,33.25l1.07.26c3.78.81,7.6.04,11.05-2.24,6.08-4.02,10.77-12.52,12.85-23.35,2.09-10.86-4.27-20.26-15.82-23.4Z"/>
        <path class="cls-3" d="M459.24,587.66c-6.55-1.78-8.84-5.7-7.9-13.52,1.62-13.61,3.5-27.19,5.37-40.77l1.95-14.16,1.98.24.25-1.2c1.27-5.98,2.37-12.01,3.47-18.03,2.47-13.48,5.01-27.41,9.43-40.42,5.27-15.55,13.41-32.12,24.9-50.63,5.42-8.74,17.44-12.6,29.22-9.4,5.15,1.4,9.68,4.03,13.1,7.59,10.07,10.5,14.49,23.21,13.93,40-1.6,47.07-10.43,80.9-28.62,109.67-15.82,25.04-36.72,35.26-63.91,31.27-1.15-.17-2.21-.38-3.16-.64h0ZM524.25,413.24c-30.64,20.75-62.73,133.24-46.41,162.64l.54.97,1.05-.35c23-7.69,44.53-37.39,54.86-75.65,9.92-36.79,6.75-70.27-8.29-87.39l-.78-.89-.97.66Z"/>
      </g>
    </g>
  </g>
</svg>