<?xml version="1.0" encoding="UTF-8"?>
<svg id="Capa_2" data-name="Capa 2" xmlns="http://www.w3.org/2000/svg" viewBox="0 0 489.12 218.9">
  <defs>
    <style>
      .cls-1 {
        fill: none;
        stroke: #1d1d1b;
        stroke-miterlimit: 10;
        stroke-width: 4px;
      }
    </style>
  </defs>
  <g id="Capa_1-2" data-name="Capa 1">
    <g>
      <path class="cls-1" d="M152.93,96.11l-.84-1.43c-5.44-9.21-18.33-13.06-27.66-7.25-12.52,7.78-13.56,22-16.89,35.26-1.94,7.72-3.88,15.45-5.82,23.18-3.44-3.91-6.87-7.84-10.31-11.75-10.54-12-28.67-4.37-33.24,8.77-2.67,7.69-5.2,16.5-8.35,24.94-3.06-3.44-6.11-6.57-6.83-7.42-6.45-7.62-12.44-15.62-18.71-23.38-7.83-9.69-26.35.8-21.47,12.5,8.71,20.87,24.64,58.95,48.02,66.44,6.4,2.05,13.77-.27,18.43-4.87,6.43-6.35,11.25-14.97,15.22-24.2,4.4,5.11,8.77,10.25,13.19,15.34,9.99,11.52,30.13,5.13,33.68-8.89,5.83-23.05,9.61-48.83,17.3-71.8,7.01-6.28,9.28-16.97,4.28-25.42Z"/>
      <path class="cls-1" d="M320.81,69.44c-3.08-24.4-36.99-25.51-38.85,0-.78,10.73-.98,21.52-1.05,32.33-5.07-5.68-10.03-11.49-14.74-17.57-9.16-11.83-30.35-4.75-33.3,8.79-2.31,10.62-4.78,21.24-7.12,31.89-2.04-2.48-4.06-4.98-6.02-7.55-7.47-9.8-12.49-19.28-22.81-26.14-7.18-4.77-17.04,1.53-16.94,9.72.33,27.67,26.93,56.52,43.82,76.72,9.39,11.24,27.47,4.22,31.2-8.24,2.81-9.37,5.22-18.86,7.52-28.38,7.41,7.67,15.23,14.98,23.61,21.91,13.52,11.19,33.48,4.03,34.44-14.26,1.36-26.04,3.51-53.3.24-79.23Z"/>
      <path class="cls-1" d="M447.86,17.13c-6.12,9.79-10.52,20.48-13.77,31.56-3.8-4.52-7.6-9.04-11.4-13.56-9.56-11.37-30.12-5.11-33.26,8.78-1.69,7.48-3.38,14.96-5.04,22.45-8-8.76-16.15-17.38-25.13-25.17-10.48-9.1-29.2,2.77-20.42,15.76,13.27,19.65,28.83,37.71,40.29,58.57,7.92,14.41,30.31,10.87,34.57-4.52,1.71-6.15,3.31-12.33,4.88-18.52,4.56,5.54,9.11,11.08,13.67,16.61,12.08,14.68,33.43,1.48,34.51-14.3,1.56-22.62,8.95-41.72,16.31-62.83,7.4-21.23-23.99-32.79-35.22-14.85Z"/>
      <g>
        <g>
          <path class="cls-1" d="M153.13,102.7c-.09-2.95-2.86-4.11-5.06-3.54-11.6-5.69-26.49-4.92-35.37,5.47-8.44,9.87-10.54,27.94-10.22,42.32-4.32-4.75-8.92-9.29-13.79-13.39-4.15-3.49-8.83-6.57-14.48-4.96-12.39,3.53-11.63,17.19-10.98,28.32-8.21-14.26-23.34-29.17-39.94-27.34-12.13,1.34-20.84,14.36-12.93,23.73,8.31,14.5,18,28.31,28.3,41.47,6.54,8.35,13.94,17.34,24.46,20.69,21.36,6.81,32.57-11.95,36.5-30.07,10.21,13.62,28.27,26.55,41.82,9.31,17.65-22.47,12.53-65.7,11.69-92.01ZM144.82,152.67c-.59,7.94-.46,20.09-4.6,27.47-16.54,29.45-30.82,8.8-40.58-3.34-.61-.76-1.42-.89-2.17-.67-1.46-.25-2.98.37-3.42,2.35-.36,1.6-.72,3.48-1.12,5.47-1.05.12-2.07.84-2.19,2.2-.88,9.74-5.29,17.87-12.46,24.21-2.91.98-6.08,1.39-9.46.94-5.15-.69-10.44-3.87-13.31-8.2-.61-.44-1.22-.89-1.83-1.33-3.17-2.78-5.83-6.15-8.5-9.38-11.35-13.7-21.54-28.3-32.5-42.3-.13-.17-.28-.27-.43-.37-1.59-6.98,4.97-14.02,12.53-14.5,6.42-.4,12.61,3.23,17.49,6.93,8.57,6.5,14.43,14.98,19.15,24.53,1.11,2.24,3.5,1.81,4.72.31.92-.06,1.78-.56,2.01-1.67,1.63-7.85-2.62-31.16,10.4-29.53,4.93.62,9.63,6.57,13.08,9.97,3.83,3.77,7.41,7.75,10.99,11.75,2.91,3.25,7.39-1.3,4.97-4.62,1.48-10.27,2.82-20.55,5.5-30.6,1.58-5.94,3.52-12.54,8.98-16.04,7.29-4.66,16.04-4.04,23.42-.26.46,15.56.48,31.16-.68,46.69Z"/>
          <path class="cls-1" d="M137.77,110.67c-1.03-1.85-4.08-.61-3.45,1.45.79,2.57,1.51,5.12,1.68,7.83.17,2.55-.35,5.01-.35,7.54,0,2.79,3.89,3.18,4.73.64,1.79-5.4.07-12.63-2.62-17.46Z"/>
          <path class="cls-1" d="M63.58,202.13c-2.33-2.39-5.18-4.25-7.53-6.65-2.35-2.4-4.27-5.1-6.41-7.67-.75-.89-1.97.24-1.52,1.17,1.48,3.09,3.72,5.88,5.97,8.46,2.21,2.53,4.74,5.39,7.7,7.01,1.46.8,2.97-1.1,1.79-2.32Z"/>
          <path class="cls-1" d="M69.09,198.21c-4.24-3.04-7.96-6.17-10.99-10.47-.93-1.31-3.04-.15-2.19,1.28,2.83,4.79,6.59,9.39,11.25,12.5,2.08,1.39,3.91-1.9,1.94-3.31Z"/>
        </g>
        <g>
          <path class="cls-1" d="M318.88,58.69c-.09-2.95-2.86-4.11-5.06-3.54-11.6-5.69-26.49-4.92-35.37,5.47-8.44,9.87-10.54,27.94-10.22,42.32-4.32-4.75-8.92-9.29-13.79-13.39-4.15-3.49-8.83-6.57-14.48-4.96-12.39,3.53-11.63,17.19-10.98,28.32-8.21-14.26-23.34-29.17-39.94-27.34-12.13,1.34-20.84,14.36-12.93,23.73,8.31,14.5,18,28.31,28.3,41.47,6.54,8.35,13.94,17.34,24.46,20.69,21.36,6.81,32.57-11.95,36.5-30.07,10.21,13.62,28.27,26.55,41.82,9.31,17.65-22.47,12.53-65.7,11.69-92.01ZM310.57,108.65c-.59,7.94-.46,20.09-4.6,27.47-16.54,29.45-30.82,8.8-40.58-3.34-.61-.76-1.42-.89-2.17-.67-1.46-.25-2.98.37-3.42,2.35-.36,1.6-.72,3.48-1.12,5.47-1.05.12-2.07.84-2.19,2.2-.88,9.74-5.29,17.87-12.46,24.21-2.91.98-6.08,1.39-9.46.94-5.15-.69-10.44-3.87-13.31-8.2-.61-.44-1.22-.89-1.83-1.33-3.17-2.78-5.83-6.15-8.5-9.38-11.35-13.7-21.54-28.3-32.5-42.3-.13-.17-.28-.27-.43-.37-1.59-6.98,4.97-14.02,12.53-14.5,6.42-.4,12.61,3.23,17.49,6.93,8.57,6.5,14.43,14.98,19.15,24.53,1.11,2.24,3.5,1.81,4.72.31.92-.06,1.78-.56,2.01-1.67,1.63-7.85-2.62-31.16,10.4-29.53,4.93.62,9.63,6.57,13.08,9.97,3.83,3.77,7.41,7.75,10.99,11.75,2.91,3.25,7.39-1.3,4.97-4.62,1.48-10.27,2.82-20.54,5.5-30.6,1.58-5.94,3.52-12.54,8.98-16.04,7.29-4.66,16.04-4.04,23.42-.26.46,15.56.48,31.16-.68,46.69Z"/>
          <path class="cls-1" d="M303.52,66.65c-1.03-1.85-4.08-.61-3.45,1.45.79,2.57,1.51,5.12,1.68,7.82.17,2.55-.35,5.01-.35,7.54,0,2.79,3.89,3.18,4.73.64,1.79-5.4.07-12.63-2.62-17.46Z"/>
          <path class="cls-1" d="M229.33,158.11c-2.33-2.39-5.18-4.25-7.53-6.65-2.35-2.4-4.27-5.1-6.41-7.67-.75-.89-1.97.24-1.52,1.17,1.48,3.09,3.72,5.88,5.97,8.46,2.21,2.53,4.74,5.39,7.7,7.01,1.46.8,2.97-1.1,1.79-2.32Z"/>
          <path class="cls-1" d="M234.84,154.2c-4.24-3.04-7.96-6.17-10.99-10.47-.93-1.31-3.04-.15-2.19,1.28,2.83,4.79,6.59,9.39,11.25,12.5,2.08,1.39,3.91-1.9,1.94-3.31Z"/>
        </g>
        <g>
          <path class="cls-1" d="M485.79,9.06c-.09-2.95-2.86-4.11-5.06-3.54-11.6-5.69-26.49-4.92-35.37,5.47-8.44,9.87-10.54,27.94-10.22,42.32-4.32-4.75-8.92-9.29-13.79-13.39-4.15-3.49-8.83-6.57-14.48-4.96-12.39,3.53-11.63,17.19-10.98,28.32-8.21-14.26-23.34-29.17-39.94-27.34-12.13,1.34-20.84,14.36-12.93,23.73,8.31,14.5,18,28.31,28.3,41.47,6.54,8.35,13.94,17.34,24.46,20.69,21.36,6.81,32.57-11.95,36.5-30.07,10.21,13.62,28.27,26.55,41.82,9.31,17.65-22.47,12.53-65.7,11.69-92.01ZM477.48,59.03c-.59,7.94-.46,20.09-4.6,27.47-16.54,29.45-30.82,8.8-40.58-3.34-.61-.76-1.42-.89-2.17-.67-1.46-.25-2.98.37-3.42,2.35-.36,1.6-.72,3.48-1.12,5.47-1.05.12-2.07.84-2.19,2.2-.88,9.74-5.29,17.87-12.46,24.21-2.91.98-6.08,1.39-9.46.94-5.15-.69-10.44-3.87-13.31-8.2-.61-.44-1.22-.89-1.83-1.33-3.17-2.78-5.83-6.15-8.5-9.38-11.35-13.7-21.54-28.3-32.5-42.3-.13-.17-.28-.27-.43-.37-1.59-6.98,4.97-14.02,12.53-14.5,6.42-.4,12.61,3.23,17.49,6.93,8.57,6.5,14.43,14.98,19.15,24.53,1.11,2.24,3.5,1.81,4.72.31.92-.06,1.78-.56,2.01-1.67,1.63-7.85-2.62-31.16,10.4-29.53,4.93.62,9.63,6.57,13.08,9.97,3.83,3.77,7.41,7.75,10.99,11.75,2.91,3.25,7.39-1.3,4.97-4.62,1.48-10.27,2.82-20.54,5.5-30.6,1.58-5.94,3.52-12.54,8.98-16.04,7.29-4.66,16.04-4.04,23.42-.26.46,15.56.48,31.16-.68,46.69Z"/>
          <path class="cls-1" d="M470.43,17.03c-1.03-1.85-4.08-.61-3.45,1.45.79,2.57,1.51,5.12,1.68,7.82.17,2.55-.35,5.01-.35,7.54,0,2.79,3.89,3.18,4.73.64,1.79-5.4.07-12.63-2.62-17.46Z"/>
          <path class="cls-1" d="M396.24,108.49c-2.33-2.39-5.18-4.25-7.53-6.65-2.35-2.4-4.27-5.1-6.41-7.67-.75-.89-1.97.24-1.52,1.17,1.48,3.09,3.72,5.88,5.97,8.46,2.21,2.53,4.74,5.39,7.7,7.01,1.46.8,2.97-1.1,1.79-2.32Z"/>
          <path class="cls-1" d="M401.75,104.57c-4.24-3.04-7.96-6.17-10.99-10.47-.93-1.31-3.04-.15-2.19,1.28,2.83,4.79,6.59,9.39,11.25,12.5,2.08,1.39,3.91-1.9,1.94-3.31Z"/>
        </g>
      </g>
    </g>
  </g>
</svg>