<?xml version="1.0" encoding="UTF-8"?>
<svg id="Capa_2" data-name="Capa 2" xmlns="http://www.w3.org/2000/svg" viewBox="0 0 1274.49 675.96">
  <defs>
    <style>
      .cls-1 {
        fill: #119da4;
      }
    </style>
  </defs>
  <g id="Capa_1-2" data-name="Capa 1">
    <path class="cls-1" d="M149.16,675.96c16.42-7.22,31.95-15.11,45.48-27.04,31.19-27.49,44.07-67.01,43.65-107.28-.46-44.26-14.89-87.16-15.69-131.32-.35-19.26.57-40.58,11.45-57.37,10.29-15.88,29.33-23.84,48.11-20,19.99,4.09,36.47,18.21,50.77,31.65,16.08,15.1,30.6,31.73,45.87,47.59,29.46,30.61,61.55,59.97,101.73,76.46,39.35,16.14,85,18.61,124.55,1.62,37.98-16.32,62.33-48.6,72.75-87.2,9.89-36.63,8.95-77.66,35.23-108.03,20.07-23.19,66.31-49.29,93.28-22.48,14.77,14.68,22.08,36.83,28.08,56.05,6.95,22.29,12.1,45.11,17.36,67.82,18.75,80.98,40.83,167.8,110.39,222.21,61.68,48.25,164.65,66.44,225.82,7.15,64.16-62.19,38.86-163.38,4.19-233.33-19.89-40.14-44.3-77.88-65.81-117.17-20.68-37.78-43.13-81.62-34.38-125.74,7.04-35.46,34.91-69.16,72.87-74.83,20.17-3.01,40.22,2.71,58.81,9.98,11.08,4.34,21.87,9.38,32.47,14.72,2.77,1.4,11.77,7.64,18.32,10.71V25.4c-18.55-8.19-37.16-15.97-57.02-20.79-87.97-21.36-174.01,33.73-197.2,117.95-26.13,94.92,36.22,182.06,81.14,260.79,23.08,40.44,47.24,84.04,49.85,131.25,1.06,19.2-1.19,41.81-15.08,56.67-14.53,15.55-37.91,18.62-58.31,16.89-97.9-8.27-129.25-112.15-147.77-190.24-17.76-74.88-33.76-191.12-128.08-208.77-41.89-7.84-86.19,7.33-119.37,32.27-34.66,26.05-56.65,62.76-66.51,104.1-9.28,38.91-6.81,92.97-57.64,101.27-46.94,7.66-86.94-27.51-116.94-57.87-32.01-32.39-60.96-69.51-101.4-92.49-37.21-21.14-81.93-25.26-121.13-6.62-35.5,16.88-58.86,50.4-67.59,87.48-10.7,45.49-1.87,92.08,5.5,137.33,6.75,41.49,14.16,91.63-33.51,111.26-20.43,8.41-43.66,9.53-65.4,6.69-11.19-1.46-22.19-4-32.87-7.6-3.63-1.22-18.43-9.45-25.16-11.15v81.24c.85.3,1.69.6,2.54.9h146.62Z"/>
  </g>
</svg>