<?xml version="1.0" encoding="UTF-8"?>
<svg id="Capa_2" data-name="Capa 2" xmlns="http://www.w3.org/2000/svg" viewBox="0 0 529.43 493.02">
  <defs>
    <style>
      .cls-1 {
        fill: #ffe900;
      }

      .cls-2 {
        fill: none;
        stroke: #1d1d1b;
        stroke-miterlimit: 10;
        stroke-width: 4.58px;
      }

      .cls-3 {
        fill: #0a0b34;
      }
    </style>
  </defs>
  <g id="Capa_1-2" data-name="Capa 1">
    <g>
      <g>
        <path class="cls-1" d="M308.72,399.7s.01-.07.02-.11c0,.03-.01.07-.02.1h0ZM328.21,73.36c.85,4.73,1.21,9.53,1.07,14.33-.14,4.86-.64,9.7-1.33,14.5-.93,6.47-2.22,12.89-3.57,19.28-1.32,6.27-2.58,12.54-3.66,18.86-.7,4.79-1.36,9.59-1.72,14.42-.38,5.11-.65,10.21-.82,15.32-.06,4.59-.12,9.17-.03,13.76.09,4.91.25,9.82.47,14.73.44,9.59,1.06,19.17,1.8,28.73,1.47,19.21,3.73,38.35,5.39,57.55.38,4.37.73,8.75.95,13.12.12,2.5.31,4.99.37,7.49.07,2.79.14,5.59.21,8.38.06,2.36,0,4.73-.01,7.09,0,2.15-.07,4.3-.13,6.45-.06,2.3-.11,4.6-.23,6.89-.13,2.58-.2,5.16-.39,7.74-.31,4.35-.61,8.7-1.01,13.04-.43,4.63-.93,9.24-1.44,13.86-.47,4.2-1.03,8.39-1.58,12.57-.58,4.39-1.14,8.8-1.87,13.17-.02.11-.04.22-.05.33-.37,2.27-.75,4.53-1.12,6.79-.42,2.45-.96,4.88-1.45,7.32-.16.79-.38,1.56-.57,2.34-.39,1.56-.78,3.11-1.17,4.67-.22.88-.53,1.75-.8,2.62-.49,1.58-.99,3.15-1.48,4.73-.22.71-.51,1.4-.78,2.1-.6,1.55-1.2,3.1-1.8,4.65-.3.79-.68,1.54-1.03,2.3-.72,1.53-1.44,3.06-2.16,4.59-2.29,4.86-5.23,9.47-8.36,13.84-7.78,10.86-17.87,19.86-29.31,26.71-5.63,3.38-11.58,6.16-17.71,8.51-3.01,1.16-6.1,2.14-9.21,2.99-1.54.42-3.09.79-4.65,1.13-1.36.3-2.74.61-4.13.8-1.36.19-2.72.37-4.08.56-1.23.17-2.47.37-3.71.48-2.66.23-5.33.46-7.99.69-.79.07-1.6.05-2.4.06-1.7.04-3.41.08-5.11.12-.54.01-1.08.02-1.62.02-4.87,0-9.75-.52-14.55-1.32-3.97-.66-7.88-1.79-11.78-2.8-2.29-.59-4.54-1.31-6.8-1.98-3.77-1.11-7.46-2.49-11.14-3.85-3.47-1.29-6.9-2.67-10.33-4.04-3.65-1.46-7.31-2.89-10.99-4.27-3.24-1.21-6.52-2.27-9.82-3.29-2.11-.55-4.2-1.08-6.33-1.54-2.05-.44-4.11-.81-6.17-1.19-2.07-.33-4.13-.67-6.2-.94-2.6-.34-5.19-.62-7.79-.87-4.69-.44-9.4-.7-14.09-1.07-4.71-.37-9.36-1.18-14-2.02-1.23-.23-2.46-.54-3.68-.81-1-.22-1.97-.48-2.95-.76-1.31-.37-2.68-.68-3.97-1.15-1.31-.48-2.61-.96-3.92-1.43-2.15-.79-4.25-1.72-6.36-2.6-5.93-2.47-11.53-5.81-16.68-9.63-10.59-7.88-18.99-18.46-24.53-30.42-2.38-5.13-4.23-10.63-5.3-16.19-.28-1.46-.56-2.91-.83-4.37-.2-1.04-.28-2.1-.41-3.14-.15-1.19-.35-2.39-.42-3.59-.09-1.46-.18-2.92-.27-4.39-.14-2.3-.1-4.6-.12-6.9-.02-2.14.14-4.3.21-6.44.07-1.97.24-3.94.37-5.9.25-3.96.72-7.91,1.15-11.85.85-7.76,2.23-15.47,3.54-23.16.71-4.32,1.41-8.65,1.92-13,.3-2.51.52-5.02.72-7.54.16-1.94.2-3.88.26-5.82-.02-1.81-.05-3.62-.07-5.43,0-.83-.12-1.66-.17-2.49-.06-.87-.12-1.73-.18-2.6-.17-1.31-.34-2.62-.51-3.93-.14-1.11-.36-2.2-.57-3.3-.21-1.14-.4-2.28-.66-3.4-.32-1.35-.64-2.7-.96-4.06-.58-2.1-1.14-4.21-1.79-6.29-.78-2.5-1.58-4.99-2.41-7.48-1.45-4.32-3.03-8.6-4.49-12.92-.78-2.29-1.57-4.57-2.29-6.88-.4-1.29-.81-2.58-1.2-3.86-.38-1.22-.66-2.49-.99-3.73-1.37-5.13-2.28-10.34-2.41-15.66-.16-6.67,1.25-13.18,3.49-19.44.71-1.98,1.55-3.9,2.46-5.79.56-1.17,1.07-2.41,1.7-3.55,1.2-2.14,2.36-4.3,3.67-6.37.78-1.23,1.56-2.46,2.33-3.7.56-.89,1.2-1.72,1.81-2.58.63-.89,1.23-1.83,1.91-2.69.9-1.13,1.79-2.27,2.69-3.4,1.61-2.03,3.33-3.96,5.04-5.9,1.58-1.79,3.32-3.44,5.01-5.14,1.71-1.72,3.61-3.27,5.42-4.88.77-.69,1.65-1.29,2.47-1.93,1-.78,1.98-1.63,3.04-2.34,1.95-1.3,3.86-2.67,5.9-3.84,1.18-.67,2.37-1.34,3.55-2.01,1.2-.68,2.47-1.24,3.71-1.84,4.4-2.13,9.03-3.77,13.68-5.28,4.57-1.48,9.21-2.76,13.83-4.06,4.32-1.21,8.65-2.4,12.98-3.59,9.41-2.59,18.84-5.1,28.28-7.58,4.48-1.18,8.97-2.36,13.42-3.67,2.53-.75,5.03-1.53,7.54-2.34,2.18-.7,4.32-1.5,6.48-2.27,0,0,.02,0,.02,0h0c3.84-1.5,7.68-3.01,11.44-4.72,4.09-1.87,8.17-3.76,12.19-5.79,8.35-4.21,16.6-8.6,24.81-13.07-.09.05-.18.1-.27.15,2.47-1.36,4.94-2.72,7.41-4.08,2.14-1.74,4.26-3.53,6.3-5.38,1.92-1.74,3.83-3.51,5.71-5.29,0,0,.01,0,.01-.02t0,0s.01-.01.02-.02c.12-.13.25-.25.38-.36,3.35-3.18,6.72-6.34,10.17-9.41,3.36-2.99,6.84-5.88,10.34-8.7,3.59-2.9,7.3-5.71,11.26-8.09,2.24-1.35,4.51-2.62,6.86-3.76,2.25-1.08,4.59-1.97,6.95-2.78,4.53-1.56,9.25-2.66,13.96-3.46,2.28-.38,4.61-.6,6.92-.72,2.32-.12,4.69-.17,7.01.04,2.46.23,4.96.48,7.36,1.11,2.25.6,4.55,1.2,6.69,2.16,2.33,1.03,4.66,2.1,6.79,3.51.91.6,1.81,1.2,2.68,1.86,2,1.51,3.82,3.18,5.46,5.08,1.53,1.77,2.83,3.82,3.84,5.92.59,1.24,1.17,2.49,1.62,3.79.76,2.25,1.43,4.52,1.85,6.86Z"/>
        <path class="cls-3" d="M106.06,190.2c7.56,22.36,15.12,44.72,22.68,67.09,3.1,9.17,6.94,16.23,17.67,16.47,11.03.25,22.2-.73,33.22-1.08,9.41-.3,20.5-1.11,28.74,4.36,7.37,4.89,10.27,13.7,3.79,20.49-6.87,7.21-16.17,12.85-24.19,18.7-8.74,6.38-17.62,12.58-26.82,18.27-5.41,3.35-10.95,6.45-16.56,9.46-4.03,2.17-7.67,4.62-9.53,8.96-2.35,5.5-.74,11.44.32,17.06,1.24,6.52,2.48,13.05,3.72,19.57,1.49,7.82,13.43,4.51,11.95-3.29-1.05-5.55-2.11-11.09-3.16-16.64-.78-4.13-3.64-10.74.42-13.58,4.1-2.87,9.05-4.86,13.38-7.4,4.93-2.9,9.77-5.95,14.54-9.12,9.02-5.99,17.77-12.37,26.44-18.86,7.54-5.64,16.86-11.07,22.09-19.13,10.89-16.8-4.15-35.35-20.77-39.64-9.82-2.53-20.18-1.75-30.19-1.41-5.17.18-10.34.35-15.51.53-2.91.1-5.82.21-8.72.3-1.75.05-4.61.58-6.13-.59-1.78-1.37-2.43-5.73-3.1-7.7-1.1-3.24-2.19-6.48-3.29-9.72-1.97-5.83-3.94-11.67-5.92-17.5-4.38-12.96-8.76-25.93-13.15-38.89-2.54-7.51-14.51-4.29-11.95,3.29h0Z"/>
        <path class="cls-3" d="M77.85,294.74c7.97,0,7.98-12.39,0-12.39s-7.98,12.39,0,12.39h0Z"/>
        <path class="cls-3" d="M185.27,224.92c7.97,0,7.98-12.39,0-12.39s-7.98,12.39,0,12.39h0Z"/>
        <path class="cls-3" d="M77.65,412.18c27.08,29,73.66,35.65,107.87,15.67,6.88-4.02.65-14.73-6.25-10.7-29.58,17.28-69.52,11.26-92.86-13.74-5.45-5.84-14.2,2.94-8.76,8.76h0Z"/>
      </g>
      <g>
        <path class="cls-2" d="M233.71,74.95c17.01-29.69,47.67-78.53,87.27-69.08,47.44,11.33,96.05,32.9,140.3,52.94,17.98,8.15,63.3,26.13,60.02,50.31,1.44,3.6,1.95,7.77,1.02,12.39-7.96,39.84-21.7,93.41-47.54,125.78-11.21,14.04-31.53,24.03-47.87,19.44-17.27,19.96-50.59,30.77-74.11,34.09-14.04,1.98-25.64-14.84-13.66-25.67,10.81-9.78,18.42-21.57,22.44-34.95-8.87-3.01-17.7-6.1-26.42-9.32-36.91-13.61-88.07-30.3-115.05-60.02-24.69-27.19-1.48-69.58,13.6-95.92ZM431.42,178.74c1.74,8.53,12.31,13.29,20.26,10.86,5.03-1.54,8.1-4.92,10.24-9.02.04-.11.08-.23.12-.34,1.22-3.31,2.31-6.66,3.44-9.99-4.86-5.28-11.08-8.97-18.92-9.12-9.29-.17-17.11,8.01-15.14,17.61ZM352.82,148.12c9.97,11.31,27.85,8.83,36.94-.74-1.51-1.86-2.67-4.07-3.2-6.71-2.75-13.77-13.47-13.78-25.82-10.73-9.58,2.37-15.86,9.17-7.92,18.19ZM284.92,114.88c6.1,6.75,19.4,6.48,25.7.41,3.29-3.17,5.22-7.04,6.21-11.18-.79-.6-1.57-1.27-2.33-2.05-6.49-6.64-13.93-16.31-24.74-11.77-8.65,3.64-10.94,17.84-4.84,24.59Z"/>
        <g>
          <path class="cls-2" d="M208.81,116.56c13.41-33.82,38.68-71.5,66.26-95.63,30.09-26.32,58.89-20.75,94.03-7.82,41.76,15.37,84,33.92,121.62,57.87,25.88,16.47,40.32,37.99,35.49,69.58-4.89,31.94-57.72,171.89-109.46,118.05-18.03,20.2-49.94,33.9-76.77,33.06-5.75-.18-11.01-2.19-8.24-9.03.74-1.82,4.81-4.89,5.6-5.7,4.2-4.28,8.03-8.87,11.29-13.92,5.08-7.85,8.15-16.33,10.81-25.14-43.66-11.85-88.89-28.08-127.1-52.81-26.07-16.87-35.27-38.92-23.53-68.52ZM270.48,194.97c29.76,14.56,60.9,25.62,92.85,34.25,1.36.37,2.21,1.16,2.71,2.1,1.27.52,2.2,1.63,1.94,3.3-1.69,10.93-5.66,21.16-11.44,30.61-2.66,4.35-5.7,8.41-9.04,12.25-2.09,2.4-4.42,4.5-6.6,6.8,0,0-.01,0-.01,0,.44-.14.81-.26,1.4-.44,6-1.82,13.31-1.37,19.57-2.86,6.42-1.52,12.77-3.57,18.84-6.17,12.32-5.29,22.72-12.88,33.43-20.75.45-2.06,3.19-3.47,5.27-1.59,11.59,10.49,33.42,7.12,44.47-1.92,6.72-5.5,11.82-14,16.12-21.39,7.01-12.07,13.12-24.78,18.97-37.44,13.61-29.49,31.99-70.55,5.8-98.4-17.33-18.43-44.91-29.94-67.21-40.95-28.74-14.19-58.76-27.18-89.38-36.81-38.31-12.04-63.64,4.85-86.69,34.16-16.56,21.07-33.89,45.17-43.63,70.25-16.08,41.42,21.45,59.73,52.65,75Z"/>
          <path class="cls-2" d="M444.73,164.17c-.23-.78,0-1.64,1.05-1.84,8.56-1.64,15.05,6.52,14.52,14.64-.57,8.65-7.98,16.22-16.88,15.1-8.01-1.01-15.25-8.76-13.21-17.14,1.54-6.35,8.14-11.1,14.52-10.76ZM444.66,184.69c8.09.84,10.99-9.65,7.36-15.52-.01,2.38-1.91,4.75-4.61,3.62-3.61-1.51-8.48-.55-9.66,3.84-1.09,4.1,3.23,7.67,6.91,8.05Z"/>
          <path class="cls-2" d="M366.12,125.31c.19-.17.34-.36.63-.42,7.48-1.5,15.1,3.7,15.97,11.41.89,7.95-5.55,15.71-13.65,15.8-7.62.09-14.93-6.19-14.56-14.09.27-5.85,5.6-12.09,11.61-12.7ZM362.14,138.68c0,3.51,3.89,6.11,7.14,6.04,3.93-.09,7.03-4,7.18-7.76.12-3.09-1.6-5.6-4.01-7.15-.37,1.43-1.6,2.7-3.45,2.89-3.34.34-6.87,2.02-6.86,5.98Z"/>
          <path class="cls-2" d="M301.3,89.68c.7.47,1.09,1.12,1.33,1.82,3.09,2.32,5.23,5.89,5.17,9.94-.1,7.83-7.98,14.24-15.64,12.92-7.86-1.36-13.13-10.17-10.58-17.76,2.59-7.72,12.93-11.45,19.72-6.92ZM293.92,107c3.51.41,7.03-2.72,7.38-6.14.16-1.55-.21-3.02-.93-4.31-.65.2-1.36.24-2.17-.1-3.14-1.32-7.55-1.34-9.12,2.44-1.37,3.3,1.36,7.7,4.85,8.11Z"/>
          <path class="cls-2" d="M272.04,77.43c4.79-8.07,17.37-11.36,25.79-7.53,2.6,1.18,1.57,4.85-1.31,4.28-8.37-1.64-14.15,1.18-20.06,6.93-2.4,2.34-6.08-.89-4.42-3.69Z"/>
          <path class="cls-2" d="M270.58,68.74c3.7-6.55,10.43-10.78,17.98-10.81,1.85,0,2.23,3.02.34,3.29-5.77.8-11.13,4.27-13.32,9.82-1.48,3.74-6.99,1.24-4.99-2.29Z"/>
          <path class="cls-2" d="M440.77,198.19c3.61.48,6.72,1.81,10.47,1.35,3.67-.45,6.7-2.14,9.87-3.9,1.41-.79,3.36,1.05,2.26,2.44-4.92,6.19-17.14,9.64-24.08,4.96-1.98-1.33-1.24-5.21,1.48-4.85Z"/>
          <path class="cls-2" d="M433.12,209.54c4.83.71,9.11,1.85,14.05.97,5.21-.93,9.46-3.38,13.67-6.49,1.68-1.25,3.51.77,2.18,2.36-6.62,7.92-20.97,12.74-30.78,8.59-2.6-1.1-2.48-5.93.88-5.43Z"/>
        </g>
      </g>
    </g>
  </g>
</svg>